<?xml version="1.0" encoding="utf-8"?> 
<!-- Generated by Layerhero SVG Exporter: http://www.layerhero.com/photoshop-svg-exporter -->
<!DOCTYPE svg PUBLIC "-//W3C//DTD SVG 1.1//EN" "http://www.w3.org/Graphics/SVG/1.1/DTD/svg11.dtd">
<svg version="1.1" baseProfile="full" xmlns="http://www.w3.org/2000/svg" xmlns:xlink="http://www.w3.org/1999/xlink" xmlns:ev="http://www.w3.org/2001/xml-events" viewBox="0 0 172 173">
<g transform="scale(NaN)" ><path fill-rule="evenodd"  fill="rgb( 52, 144, 201 )"
 d="M85.589,173.001 C85.589,173.001 171.998,128.749 171.998,128.749 C171.998,128.749 171.998,44.302 171.998,44.302 C171.998,44.302 85.589,-0.002 85.589,-0.002 C85.589,-0.002 0.001,44.302 0.001,44.302 C0.001,44.302 0.001,128.362 0.001,128.362 C0.001,128.362 85.589,173.001 85.589,173.001 Z"/>
<path fill-rule="evenodd"  fill="rgb( 255, 255, 255 )"
 d="M142.994,54.121 C142.994,54.121 141.766,54.725 141.766,54.725 C141.766,54.725 91.892,33.588 91.892,33.588 C91.135,33.203 90.287,33.000 89.441,33.000 C87.389,33.000 85.541,34.131 84.613,35.949 C83.954,37.232 83.839,38.691 84.286,40.062 C84.735,41.432 85.692,42.547 86.981,43.199 C86.981,43.199 87.020,43.221 87.020,43.221 C87.020,43.221 129.462,60.773 129.462,60.773 C129.462,60.773 87.375,81.461 87.375,81.461 C87.375,81.461 87.375,88.039 87.375,88.039 C87.375,88.039 29.003,59.363 29.003,59.363 C29.003,59.363 29.003,124.320 29.003,124.320 C29.003,130.006 33.648,134.633 39.360,134.633 C45.070,134.633 49.717,130.006 49.717,124.320 C49.717,124.320 49.717,92.537 49.717,92.537 C49.717,92.537 88.142,111.412 88.142,111.412 C88.142,111.412 88.142,93.111 88.142,93.111 C88.142,93.111 88.904,92.736 88.904,92.736 C90.280,92.586 93.581,92.283 98.140,92.283 C105.945,92.283 120.093,93.221 127.160,99.496 C130.528,102.484 132.166,106.350 132.166,111.312 C132.166,116.103 130.577,119.840 127.313,122.736 C119.981,129.236 106.144,130.207 98.549,130.209 C93.546,130.209 90.102,129.818 90.071,129.816 C89.855,129.789 89.643,129.775 89.429,129.775 C86.688,129.775 84.380,131.822 84.059,134.539 C83.890,135.971 84.290,137.381 85.186,138.510 C86.083,139.641 87.367,140.357 88.805,140.523 C89.217,140.574 93.013,141.000 98.399,141.000 C98.399,141.000 98.414,141.000 98.414,141.000 C109.622,141.000 124.980,139.232 134.502,130.801 C140.136,125.810 142.994,119.254 142.994,111.312 C142.994,103.213 140.091,96.527 134.368,91.447 C127.807,85.621 117.903,83.078 110.795,81.969 C110.795,81.969 142.994,66.129 142.994,66.129 C142.994,66.129 142.994,54.121 142.994,54.121 Z"/>
</g>
</svg>
