<svg xmlns="http://www.w3.org/2000/svg" xmlns:xlink="http://www.w3.org/1999/xlink" preserveAspectRatio="xMidYMid" width="104" height="104" viewBox="0 0 104 104">
  <defs>
    <style>
      .cls-1, .cls-3 {
        fill: #3490c9;
      }

      .cls-2 {
        fill: #fff;
      }

      .cls-3 {
        fill-rule: evenodd;
      }
    </style>
  </defs>
  <g>
    <circle cx="52" cy="52" r="52" class="cls-1"/>
    <circle cx="52.5" cy="52.5" r="42.5" class="cls-2"/>
    <path d="M68.784,42.985 C68.496,36.340 65.328,32.106 62.519,30.412 C54.815,25.591 42.790,30.086 40.557,31.389 L43.942,40.509 C48.478,38.425 53.447,37.969 55.679,39.402 C58.631,40.965 57.911,46.112 53.879,47.480 C53.591,47.610 53.303,47.740 53.015,47.806 C47.110,49.890 44.806,51.975 45.166,60.118 L45.166,63.115 L56.399,63.115 L56.399,60.118 L56.399,59.922 C56.327,58.815 56.327,57.186 56.399,56.730 C56.399,56.730 56.399,56.730 56.471,56.665 L57.191,56.405 C57.407,56.339 57.695,56.274 57.983,56.144 C61.583,54.906 69.216,52.496 68.784,42.985 ZM44.230,71.518 C44.230,79.336 57.479,79.401 57.479,71.518 C57.479,63.701 44.230,63.701 44.230,71.518 Z" class="cls-3"/>
  </g>
</svg>
