<?xml version="1.0" encoding="utf-8"?> 
<!-- Generated by Layerhero SVG Exporter: http://www.layerhero.com/photoshop-svg-exporter -->
<!DOCTYPE svg PUBLIC "-//W3C//DTD SVG 1.1//EN" "http://www.w3.org/Graphics/SVG/1.1/DTD/svg11.dtd">
<svg version="1.1" baseProfile="full" xmlns="http://www.w3.org/2000/svg" xmlns:xlink="http://www.w3.org/1999/xlink" xmlns:ev="http://www.w3.org/2001/xml-events" width="28" height="24" viewBox="0 0 28 24">
<g transform="scale(NaN)" ><path fill-rule="evenodd"  stroke="rgb( 0, 0, 0 )" stroke-width="0px" stroke-linecap="butt" stroke-linejoin="miter" fill="rgb( 51, 153, 204 )"
 d="M27.000,23.000 C27.000,23.000 27.000,6.000 27.000,6.000 C27.000,6.000 1.000,6.000 1.000,6.000 C1.000,6.000 1.000,23.000 1.000,23.000 C1.000,23.000 -0.000,23.000 -0.000,23.000 C-0.000,23.000 -0.000,3.000 -0.000,3.000 C-0.000,3.000 1.000,3.000 1.000,3.000 C1.000,3.000 1.000,5.000 1.000,5.000 C1.000,5.000 27.000,5.000 27.000,5.000 C27.000,5.000 27.000,3.000 27.000,3.000 C27.000,3.000 28.000,3.000 28.000,3.000 C28.000,3.000 28.000,23.000 28.000,23.000 C28.000,23.000 27.000,23.000 27.000,23.000 ZM12.000,3.000 C12.000,3.000 12.000,2.000 12.000,2.000 C12.000,2.000 14.000,2.000 14.000,2.000 C14.000,2.000 27.000,2.000 27.000,2.000 C27.000,2.000 27.000,3.000 27.000,3.000 C27.000,3.000 14.000,3.000 14.000,3.000 C14.000,3.000 12.000,3.000 12.000,3.000 ZM11.000,1.000 C11.000,1.000 12.000,1.000 12.000,1.000 C12.000,1.000 12.000,2.000 12.000,2.000 C12.000,2.000 11.000,2.000 11.000,2.000 C11.000,2.000 11.000,1.000 11.000,1.000 ZM3.000,2.000 C3.000,2.000 3.000,1.000 3.000,1.000 C3.000,1.000 4.000,1.000 4.000,1.000 C4.000,1.000 4.000,2.000 4.000,2.000 C4.000,2.000 3.000,2.000 3.000,2.000 ZM1.000,3.000 C1.000,3.000 1.000,2.000 1.000,2.000 C1.000,2.000 3.000,2.000 3.000,2.000 C3.000,2.000 3.000,3.000 3.000,3.000 C3.000,3.000 1.000,3.000 1.000,3.000 ZM27.000,24.000 C27.000,24.000 1.000,24.000 1.000,24.000 C1.000,24.000 1.000,23.000 1.000,23.000 C1.000,23.000 27.000,23.000 27.000,23.000 C27.000,23.000 27.000,24.000 27.000,24.000 ZM4.000,-0.000 C4.000,-0.000 11.000,-0.000 11.000,-0.000 C11.000,-0.000 11.000,1.000 11.000,1.000 C11.000,1.000 4.000,1.000 4.000,1.000 C4.000,1.000 4.000,-0.000 4.000,-0.000 Z"/>
<path fill-rule="evenodd"  stroke="rgb( 0, 0, 0 )" stroke-width="0px" stroke-linecap="butt" stroke-linejoin="miter" fill="rgb( 193, 232, 252 )"
 d="M1.000,5.000 C1.000,5.000 1.000,4.000 1.000,4.000 C1.000,4.000 1.000,3.000 1.000,3.000 C1.000,3.000 3.000,3.000 3.000,3.000 C3.000,3.000 3.000,2.000 3.000,2.000 C3.000,2.000 4.000,2.000 4.000,2.000 C4.000,2.000 4.000,1.000 4.000,1.000 C4.000,1.000 11.000,1.000 11.000,1.000 C11.000,1.000 11.000,2.000 11.000,2.000 C11.000,2.000 12.000,2.000 12.000,2.000 C12.000,2.000 12.000,3.000 12.000,3.000 C12.000,3.000 27.000,3.000 27.000,3.000 C27.000,3.000 27.000,4.000 27.000,4.000 C27.000,4.000 27.000,5.000 27.000,5.000 C27.000,5.000 1.000,5.000 1.000,5.000 Z"/>
<text font-family="Microsoft Uighur" fill="rgb( 52, 144, 201 )" font-size="11px" x="8px" y="17px">CSS</text>
</g></svg>
